<svg xmlns="http://www.w3.org/2000/svg"  viewBox="0 0 100 100" width="100px" height="100px"><path d="M 50.734375 10.427734 C 46.762445 10.490514 42.993928 11.374723 39.458984 13.060547 A 1.0001 1.0001 0 0 0 39.443359 13.068359 C 37.946981 13.814627 37 15.348921 37 17.019531 L 37 17.394531 C 31.509956 18.280424 26.853624 19.356048 23.445312 20.574219 C 21.651169 21.215467 20.194617 21.888612 19.097656 22.638672 C 18.000696 23.388732 17.18292 24.244749 17.011719 25.375 C 16.39958 29.414474 17.003906 36.083984 17.003906 36.083984 A 1.0001 1.0001 0 0 0 17.412109 36.808594 C 17.412109 36.808594 18.391396 37.500376 20.347656 38.386719 C 20.417851 39.597414 20.489186 40.650466 20.560547 41.566406 C 18.578035 42.161042 16.693765 43.073037 15 44.263672 C 14.475242 44.632625 13.927107 45.105678 13.517578 45.732422 C 13.210752 46.20199 13.068622 46.824766 13.099609 47.46875 A 1.0001 1.0001 0 0 0 13.029297 48.166016 C 13.413421 49.703511 13.799717 51.238886 14.183594 52.775391 A 1.0001 1.0001 0 0 0 14.183594 52.777344 C 14.343348 53.412315 14.527137 54.263638 15.207031 54.978516 A 1.0001 1.0001 0 0 0 15.207031 54.980469 C 15.817216 55.621087 16.569732 55.868711 17.175781 56.046875 C 18.671842 56.488013 20.184058 56.673273 21.697266 56.716797 C 22.238448 64.440845 22.83659 72.159309 23.498047 79.873047 C 23.697581 82.211021 23.944153 84.954642 25.765625 87.005859 C 26.136164 87.423386 26.571082 87.66644 27.177734 87.982422 C 27.784387 88.298404 28.545565 88.634195 29.453125 88.986328 C 31.268245 89.690595 33.659823 90.452163 36.425781 91.134766 C 38.379592 91.61694 40.526228 92.055743 42.777344 92.408203 A 1.0005205 1.0005205 0 0 0 42.787109 92.410156 A 1.0005205 1.0005205 0 0 0 42.904297 92.429688 C 46.991652 93.062159 51.434744 93.396198 55.798828 93.117188 C 59.146476 92.902999 62.065663 92.447406 64.648438 91.845703 A 1.0003597 1.0003597 0 0 0 64.900391 91.789062 C 70.842719 90.370781 74.945207 88.164778 78.142578 86.275391 C 79.378713 85.545125 80.18213 84.415265 80.578125 83.107422 C 80.97412 81.799579 81.021308 80.31964 80.923828 78.640625 C 80.728869 75.282595 79.929324 71.08515 79.542969 65.976562 C 79.058574 59.563412 78.571287 53.62762 78.083984 47.666016 C 81.640945 47.125877 83.653786 46.244225 85.601562 45.052734 C 86.149784 44.717284 86.492635 44.323994 86.783203 43.806641 C 87.227571 43.01511 87.044709 42.255598 86.941406 41.769531 C 86.605983 40.185588 86.137149 38.629485 85.542969 37.123047 L 85.542969 37.121094 C 85.508659 37.033414 85.448059 36.831876 85.234375 36.595703 A 1.0001 1.0001 0 0 0 85.228516 36.589844 C 84.887278 36.218933 84.529691 36.162089 84.373047 36.123047 L 84.371094 36.123047 C 82.011342 35.527163 79.546752 35.466109 77.138672 35.810547 C 77.113689 35.484609 77.087625 35.177775 77.0625 34.867188 C 79.574828 33.33352 80.701172 32.144531 80.701172 32.144531 A 1.0001 1.0001 0 0 0 80.949219 31.28125 L 79.171875 21.822266 C 79.197843 21.433322 79.12467 21.037957 78.949219 20.683594 C 78.949219 20.683594 78.949219 20.681641 78.949219 20.681641 C 78.597804 19.630707 77.68253 19.035351 76.523438 18.482422 C 75.3637 17.929185 73.865577 17.458667 72.076172 17.052734 C 68.590527 16.262003 63.995919 15.741422 58.917969 15.621094 C 58.724295 14.8611 58.667376 14.618214 58.488281 13.929688 C 58.049877 12.176068 56.572524 10.866879 54.779297 10.640625 A 1.0001 1.0001 0 0 0 54.773438 10.640625 C 53.405074 10.478093 52.058352 10.406809 50.734375 10.427734 z M 48.675781 13.587891 C 49.635702 13.547471 50.638714 13.678501 51.699219 13.957031 C 52.265629 14.107337 52.700939 14.554807 52.833984 15.125 C 52.87367 15.294661 52.895803 15.391397 52.939453 15.578125 C 51.245059 15.665533 49.67139 15.834304 47.904297 16.003906 C 46.420746 16.146639 44.988174 16.308373 43.576172 16.476562 C 43.600339 16.032431 43.803569 15.615313 44.158203 15.335938 A 1.0001 1.0001 0 0 0 44.158203 15.333984 C 45.594628 14.199339 47.075913 13.655256 48.675781 13.587891 z M 42.830078 13.878906 C 41.993578 14.596947 41.507813 15.647657 41.568359 16.753906 C 41.568359 16.753906 41.568359 16.755859 41.568359 16.755859 C 41.675522 19.037766 41.896337 23.07354 41.953125 24.119141 C 41.414502 24.212521 40.846486 24.347803 40.421875 24.283203 C 39.876657 24.200208 39.441258 23.90518 39 23.482422 L 39 18.414062 A 1.0001 1.0001 0 0 0 39 18.052734 L 39 17.019531 C 39 16.103602 39.512699 15.271765 40.332031 14.861328 C 41.148854 14.472284 41.989975 14.175388 42.830078 13.878906 z M 53.402344 17.560547 C 53.660278 18.665373 54.025391 20.226562 54.025391 20.226562 A 1.0001 1.0001 0 0 0 54.533203 20.884766 C 56.053421 21.686312 57.771718 21.579344 59.376953 20.925781 A 1.0001 1.0001 0 0 0 59.970703 19.757812 C 59.970703 19.757812 59.608029 18.336761 59.433594 17.644531 C 64.172186 17.787876 68.458371 18.283772 71.632812 19.003906 C 73.328034 19.388473 74.714564 19.835096 75.662109 20.287109 C 76.602803 20.735855 77.008613 21.222275 77.041016 21.308594 L 77.136719 21.822266 C 77.04776 22.00221 76.834811 22.29714 76.445312 22.638672 C 75.590412 23.388293 74.049811 24.289839 72.162109 25.136719 C 68.386707 26.830479 63.197667 28.37254 58.855469 29.009766 C 54.470048 29.653335 47.738403 30.154292 41.269531 30.240234 C 34.800659 30.326174 28.527342 29.968192 25.275391 29.039062 C 21.963032 28.092467 20.337204 27.131203 19.59375 26.505859 C 19.222023 26.193188 19.068749 25.968539 19.009766 25.863281 C 18.987535 25.823607 18.98889 25.837508 18.988281 25.847656 A 1.0008696 1.0008696 0 0 0 18.976562 25.785156 C 18.981565 25.7503 18.983079 25.70816 18.988281 25.673828 C 19.028081 25.411079 19.357242 24.885424 20.226562 24.291016 C 21.095883 23.696607 22.424661 23.062658 24.119141 22.457031 C 27.273426 21.329654 31.731079 20.287992 37 19.423828 L 37 24 A 1.0001 1.0001 0 0 0 37.246094 24.65625 C 38.047049 25.577622 39.071438 26.100073 40.121094 26.259766 C 41.170749 26.419459 42.227725 26.257166 43.271484 25.962891 A 1.0001 1.0001 0 0 0 43.998047 24.945312 C 43.998047 24.945312 43.802357 21.22611 43.662109 18.480469 C 45.104634 18.307348 46.573933 18.142503 48.095703 17.996094 C 50.009967 17.812367 51.642049 17.637221 53.402344 17.560547 z M 77.597656 24.271484 L 78.876953 31.089844 C 78.493767 31.470798 77.096553 32.787559 73.419922 34.583984 C 69.167772 36.661612 62.296707 39.014153 51.904297 40.003906 C 40.856509 41.055923 32.877042 40.050909 27.480469 38.697266 L 27.029297 31.460938 C 30.786107 32.117256 35.934692 32.311473 41.296875 32.240234 C 47.849753 32.153174 54.616952 31.654665 59.144531 30.990234 C 63.715333 30.31946 68.998372 28.747427 72.980469 26.960938 C 74.884116 26.106903 76.470754 25.216051 77.597656 24.271484 z M 75.142578 35.941406 C 75.942892 46.385379 76.751397 55.569343 77.548828 66.126953 C 77.944473 71.358366 78.745943 75.624639 78.927734 78.755859 C 79.018634 80.321469 78.947225 81.592156 78.664062 82.527344 C 78.380903 83.462532 77.946365 84.069452 77.125 84.554688 C 76.29105 85.047484 75.382933 85.556342 74.427734 86.064453 C 73.226733 71.752725 72.425041 59.150427 70.771484 44.296875 A 1.0001 1.0001 0 0 0 69.75 43.394531 A 1.0001 1.0001 0 0 0 68.783203 44.519531 C 70.462457 59.603913 71.255426 72.347445 72.498047 87.029297 C 70.496244 87.975591 68.207995 88.872931 65.457031 89.595703 C 64.711638 80.650449 63.92443 72.961734 63.220703 64.191406 C 62.734694 58.116289 62.248719 52.04275 61.761719 45.96875 A 1.0001 1.0001 0 0 0 60.767578 45.033203 A 1.0001 1.0001 0 0 0 59.767578 46.126953 C 60.254578 52.200953 60.740572 58.27668 61.226562 64.351562 C 61.940874 73.253799 62.738853 81.004408 63.490234 90.066406 C 61.191013 90.559617 58.613092 90.932909 55.671875 91.121094 C 55.269631 91.146811 54.863379 91.150939 54.458984 91.166016 C 54.058191 75.717239 52.695189 61.785743 51.619141 47.082031 A 1.0001 1.0001 0 0 0 50.632812 46.140625 A 1.0001 1.0001 0 0 0 49.625 47.228516 C 50.702968 61.958445 52.059891 75.847157 52.458984 91.203125 C 49.581907 91.193947 46.702102 90.951507 43.960938 90.558594 C 43.156459 75.596811 42.86717 63.411628 42.318359 47.121094 A 1.0001 1.0001 0 0 0 41.269531 46.142578 A 1.0001 1.0001 0 0 0 40.320312 47.189453 C 40.863376 63.309377 41.153322 75.445723 41.941406 90.238281 C 40.170021 89.93226 38.469542 89.579641 36.904297 89.193359 C 35.4108 88.824784 34.047766 88.432938 32.822266 88.042969 C 31.822648 78.738726 30.960036 65.996543 30.351562 55.701172 C 30.817019 55.603722 31.293684 55.514674 31.751953 55.416016 C 33.122157 55.12102 34.894753 54.749004 35.974609 53.244141 C 36.868311 51.998247 36.92596 50.322477 36.117188 49.019531 C 35.30831 47.716418 33.780504 47.021784 32.267578 47.269531 C 31.757183 47.352693 30.8069 47.553719 29.892578 47.75 C 29.682004 44.171617 29.517172 42.29353 29.402344 41.177734 C 34.888955 42.280523 42.348535 42.92426 52.095703 41.996094 C 62.703293 40.985847 69.816025 38.570231 74.296875 36.380859 C 74.600142 36.232681 74.862544 36.087689 75.142578 35.941406 z M 84.34375 39.792969 C 84.591562 40.580273 84.81337 41.376072 84.984375 42.183594 A 1.0001 1.0001 0 0 0 84.984375 42.185547 C 85.071075 42.59348 85.042693 42.821655 85.039062 42.828125 C 85.001632 42.894775 84.580419 43.331153 84.556641 43.345703 C 82.731485 44.462184 81.130638 45.164588 77.923828 45.662109 C 77.815441 44.329987 77.707801 42.946413 77.599609 41.587891 C 79.939034 41.448579 82.245292 40.835686 84.34375 39.792969 z M 32.589844 49.244141 C 33.250918 49.135887 34.064845 49.505332 34.417969 50.074219 C 34.771196 50.643273 34.739907 51.534018 34.349609 52.078125 C 33.823371 52.812106 32.653454 53.176023 31.330078 53.460938 C 26.692772 54.45928 21.986335 55.380362 17.742188 54.128906 A 1.0001 1.0001 0 0 0 17.740234 54.128906 C 17.231672 53.979423 16.848018 53.801918 16.65625 53.601562 L 16.654297 53.599609 C 16.441034 53.374318 16.278829 52.909739 16.123047 52.291016 L 16.123047 52.289062 C 15.932516 51.526446 15.741499 50.76408 15.550781 50.001953 C 15.724725 50.052643 15.918342 50.150486 16.078125 50.189453 L 16.078125 50.1875 C 20.759226 51.330548 22.709922 51.106782 28.400391 50.105469 C 29.310749 49.945617 31.919924 49.353294 32.589844 49.244141 z"/></svg>